<?xml version="1.0" encoding="utf-8"?>
<!-- Generator: Adobe Illustrator 24.2.0, SVG Export Plug-In . SVG Version: 6.00 Build 0)  -->
<svg version="1.1" id="Capa_1" xmlns="http://www.w3.org/2000/svg" xmlns:xlink="http://www.w3.org/1999/xlink" x="0px" y="0px"
	 viewBox="0 0 512 512" style="enable-background:new 0 0 512 512;" xml:space="preserve">
<style type="text/css">
	.st0{fill:#B9D948;}
</style>
<g>
	<g>
		<path class="st0" d="M476.9,35.1C430-11.7,354-11.7,307.1,35.1L206.9,135.4c-48.5,48.5-44,125.7,0,169.7
			c7.4,7.4,15.5,13.4,24.1,18.3l18.3-18.3c12-12,7.8-26,7.6-36.2c-2.6-1.9-5.2-3.9-7.6-6.3c-22.6-22.6-23.6-61.3,0-84.9
			c3.5-3.5,98.2-98.2,100.3-100.3c23.4-23.4,61.5-23.4,84.9,0s23.4,61.5,0,84.9l-66.3,66.3c1.9,10.6,13.4,35.7,7.5,77.2
			c0.3-0.3,0.6-0.5,0.9-0.8l100.3-100.3C523.7,158,523.7,82,476.9,35.1z"/>
	</g>
</g>
<g>
	<g>
		<path class="st0" d="M312.9,199.1c-7.4-7.4-15.5-13.4-24.1-18.3l-18.3,18.3c-12,12-7.8,26-7.6,36.2c2.6,1.9,5.2,3.9,7.6,6.3
			c22.6,22.6,23.6,61.3,0,84.9c-3.5,3.5-106,106-108.1,108.1c-23.4,23.4-61.5,23.4-84.9,0s-23.4-61.5,0-84.9l74.1-74.1
			c-1.9-10.6-13.4-35.7-7.5-77.2c-0.3,0.3-0.6,0.5-0.9,0.8L35.1,307.1c-46.9,46.9-46.9,122.8,0,169.7s122.8,46.9,169.7,0
			l108.1-108.1C360.5,321.2,357.9,244.1,312.9,199.1z"/>
	</g>
</g>
</svg>
